PathFileType	4	(X/Y/Z)	/Users/niels/Desktop/University/Third Semester/Perception and Action/Exam/Gymnastics Motion Tracking/Code for Gym Tracking/Analyzed Data/Webcam_Backflip/id2_1_baseline_Sports2D/id2_1_baseline_Sports2D_px_person00.trc
DataRate	CameraRate	NumFrames	NumMarkers	Units	OrigDataRate	OrigDataStartFrame	OrigNumFrames
29.92207792207792	29.92207792207792	9	22	m	29.92207792207792	240	385
Frame#	Time	Hip			RHip			RKnee			RAnkle			RBigToe			RSmallToe			RHeel			LHip			LKnee			LAnkle			LBigToe			LSmallToe			LHeel			Neck			Head			Nose			RShoulder			RElbow			RWrist			LShoulder			LElbow			LWrist		
		X1	Y1	Z1	X2	Y2	Z2	X3	Y3	Z3	X4	Y4	Z4	X5	Y5	Z5	X6	Y6	Z6	X7	Y7	Z7	X8	Y8	Z8	X9	Y9	Z9	X10	Y10	Z10	X11	Y11	Z11	X12	Y12	Z12	X13	Y13	Z13	X14	Y14	Z14	X15	Y15	Z15	X16	Y16	Z16	X17	Y17	Z17	X18	Y18	Z18	X19	Y19	Z19	X20	Y20	Z20	X21	Y21	Z21	X22	Y22	Z22
240	8.020833333333334	0.8228699367920101	-0.5069577704237614	0.0	0.8015525821326352	-0.5054489051982847	0.0	0.8923007775284877	-0.7540636376930018	0.0	0.7990976715425594	-0.98872024726119	0.0	0.9128226704180478	-1.035414075417949	0.0	0.8814526785366877	-1.0485356176314806	0.0	0.7640784357302196	-1.021609036620045	0.0	0.8630563438504344	-0.5100989830827006	0.0	0.9448232278186001	-0.7304617552269477	0.0	1.0315029847585442	-0.9248560136177495	0.0	1.1366442160379095	-0.9540024375953526	0.0	1.1279584197567951	-0.9427927601538483	0.0	1.022413758353374	-0.9561161025961156	0.0	0.8652608757869558	-0.14547958143481257	0.0	0.9002845652401607	0.016239077820356426	0.0	0.9160988005151577	-0.07729870057114266	0.0	0.7719120867934488	-0.17654019312799077	0.0	0.6074502606699717	-0.2622296359028653	0.0	0.695170221518552	-0.4030450928629815	0.0	0.9419816940643784	-0.20606392578072694	0.0	0.9774461663042534	-0.3676595245988031	0.0	0.9595258829802986	-0.3512511213455663	0.0
241	8.054253472222221	0.8227583604332228	-0.5072327265578154	0.0	0.8007859600154862	-0.5055718040076581	0.0	0.8926220237573242	-0.7541488483680945	0.0	0.7991451656155059	-0.988966746298039	0.0	0.913131533914483	-1.03554714177234	0.0	0.8815367230993776	-1.048551884225571	0.0	0.7640899894143178	-1.0218071759070322	0.0	0.8634314284215852	-0.5104642402884	0.0	0.9452095279002154	-0.730899780537795	0.0	1.0314208744533953	-0.9247587122005629	0.0	1.1360958746063736	-0.9539602945841272	0.0	1.1278572983821924	-0.9425834767332035	0.0	1.0225950321501192	-0.9561242479323554	0.0	0.8648943746439082	-0.14552880564297657	0.0	0.9004069897649002	0.016110339602905234	0.0	0.9162156259007189	-0.07700672566445983	0.0	0.771420613041085	-0.17680849511022106	0.0	0.6076929405091838	-0.2640968776160917	0.0	0.6923401680289775	-0.4061105532242629	0.0	0.9414474565743974	-0.20617839835084167	0.0	0.9765294238752704	-0.3675107746492227	0.0	0.9598548407378291	-0.3517053276038724	0.0
242	8.08767361111111	0.8228746491807366	-0.5072378137272837	0.0	0.8000790244151782	-0.5054887825983054	0.0	0.8929496956464463	-0.7540430093133702	0.0	0.79919242982556	-0.9891485785587697	0.0	0.9135358338910768	-1.0355170590687315	0.0	0.8816003811396418	-1.048475430228889	0.0	0.7640286896896319	-1.0219983813598936	0.0	0.8638428556808547	-0.510578502052857	0.0	0.9457749054820881	-0.7311353776198816	0.0	1.0313774732536	-0.9246903136280084	0.0	1.1356145114145662	-0.9539839830212314	0.0	1.127881728644012	-0.9423892645934954	0.0	1.0227494318596926	-0.9562136595794771	0.0	0.8646843608475233	-0.14567673241959953	0.0	0.9007440904143186	0.016084340554623145	0.0	0.9162248505055173	-0.0768196122764821	0.0	0.7710874037005576	-0.17704924136896039	0.0	0.6080405488736079	-0.2657505746420168	0.0	0.6893286456303277	-0.409528584252554	0.0	0.9410178231844937	-0.20625025587506646	0.0	0.9759750899180195	-0.3673521684004502	0.0	0.9604013974006341	-0.3521491640699147	0.0
243	8.12109375	0.8232015899901597	-0.506889651394835	0.0	0.7994961402952652	-0.5052053505241763	0.0	0.8931663392209788	-0.7537014030040915	0.0	0.7992665212337887	-0.989164146990758	0.0	0.9139243512326316	-1.0354050818110914	0.0	0.881612380016214	-1.0483590210361227	0.0	0.7639563625656284	-1.0220620045760798	0.0	0.8643033606229205	-0.5104247898681433	0.0	0.9464501057137729	-0.7311536261240619	0.0	1.0313616251379418	-0.924647736974504	0.0	1.1352622171435138	-0.9541305028799912	0.0	1.1279531491135326	-0.9423050052658486	0.0	1.0227858880579737	-0.9563216427988892	0.0	0.864549287013962	-0.1458212450305243	0.0	0.9011242702040154	0.016161491597504705	0.0	0.9160274554147945	-0.0767883380872536	0.0	0.770814643949175	-0.1772446094965429	0.0	0.6084866657050592	-0.26719337144199473	0.0	0.6864425598763606	-0.41307888004864896	0.0	0.9406740270421826	-0.20623895694477157	0.0	0.975599006471422	-0.3671073228399691	0.0	0.9611864645037042	-0.352548845117645	0.0
244	8.15451388888889	0.8237512404366663	-0.5062431463396518	0.0	0.7991716273532613	-0.5047587393548607	0.0	0.8932168471165504	-0.7532528572395297	0.0	0.7993711978866141	-0.9890370878471939	0.0	0.9142521766360572	-1.0353216663168676	0.0	0.8816208124026949	-1.0482903717958254	0.0	0.7639203552255922	-1.0219714324875178	0.0	0.8648725912768542	-0.5100440964160479	0.0	0.9471290388771424	-0.7310496251198703	0.0	1.0313525802849939	-0.9246013469359441	0.0	1.135000059767565	-0.9544186775200165	0.0	1.1279436030300318	-0.9423681550947428	0.0	1.022703928287632	-0.9563363341057906	0.0	0.8644185920651418	-0.1458516527247985	0.0	0.9014269404168734	0.016355198105702358	0.0	0.9157069224875739	-0.07686511844959192	0.0	0.7705586018770861	-0.17737522101763398	0.0	0.6090021115721257	-0.26840214909142157	0.0	0.6837405153414629	-0.4165145643782834	0.0	0.9403982349142896	-0.20611900872705716	0.0	0.9752693926864249	-0.36672984675052833	0.0	0.9621561177450979	-0.35285304712367954	0.0
245	8.187934027777777	0.824561274680723	-0.5054536655486693	0.0	0.799281867309731	-0.5042275075582561	0.0	0.8931352104287731	-0.7528857765461078	0.0	0.7994695307265093	-0.9888801192566791	0.0	0.9144802655823291	-1.0353025307820398	0.0	0.8816625847509909	-1.0482919260718917	0.0	0.7639269205143788	-1.0218136966522282	0.0	0.8655713006174212	-0.5095221534825313	0.0	0.9477377397851927	-0.7309385234725804	0.0	1.0313659040835597	-0.9245266656552475	0.0	1.1347737886336695	-0.9547680025260454	0.0	1.1277512951537152	-0.9425358137258366	0.0	1.022570538626822	-0.9561975136971693	0.0	0.864292105342109	-0.1457135168894584	0.0	0.9016154550714806	0.016694144793372348	0.0	0.9154463157495586	-0.0769601522274833	0.0	0.7704041489215635	-0.17744149086600602	0.0	0.6095273246485687	-0.2693082787175651	0.0	0.681094185755689	-0.4195452177340674	0.0	0.9401845353134893	-0.20585437303475004	0.0	0.9749646889013694	-0.36614616363379576	0.0	0.9631989132017078	-0.35293623539899144	0.0
246	8.221354166666666	0.8256324894143439	-0.5046950167445646	0.0	0.7998945979664036	-0.5037070829196316	0.0	0.8929859831494029	-0.752705411774785	0.0	0.7995346290992048	-0.9887939805264511	0.0	0.9145322206047322	-1.0353226015715742	0.0	0.8817117347515738	-1.048333678995432	0.0	0.7639546941447565	-1.02168504998214	0.0	0.8663752676670595	-0.5089528404990951	0.0	0.9483053549246546	-0.7308440299733606	0.0	1.0314103607722729	-0.9244144889332928	0.0	1.1345814123684608	-0.9550414542896771	0.0	1.1273562846148333	-0.942734963284893	0.0	1.0224277414969363	-0.9559572908599757	0.0	0.8642157980676797	-0.14541795634863278	0.0	0.9017265921098913	0.01715086374842544	0.0	0.9154078322658141	-0.07700163490350245	0.0	0.7704093956132251	-0.17745116845105752	0.0	0.6100341775107816	-0.2698614654271991	0.0	0.678251681604385	-0.4219613179196715	0.0	0.9400713405194149	-0.20540543455035543	0.0	0.974702841803857	-0.36525761450117245	0.0	0.9642265688859019	-0.35265693144231125	0.0
247	8.254774305555555	0.8268673601131779	-0.5041189770537724	0.0	0.8009400290870302	-0.503288039665977	0.0	0.8928075715922463	-0.7527565634323242	0.0	0.7995599235206798	-0.988842266990558	0.0	0.9143952000219938	-1.0353701631419217	0.0	0.8817529532435284	-1.0484034920355076	0.0	0.7639823204478753	-1.0216360264698308	0.0	0.8672310577799637	-0.5084147115587598	0.0	0.948901084359759	-0.7307415379972709	0.0	1.0314415140563966	-0.9242439778198505	0.0	1.1344650044122826	-0.9551257928876999	0.0	1.1268369473113242	-0.9428836515642786	0.0	1.0222982334997983	-0.9557001653968797	0.0	0.8642359877045446	-0.14503255474859097	0.0	0.9018543794923101	0.017609058641570922	0.0	0.9156693911490045	-0.07695346766525009	0.0	0.7705108777489051	-0.17740172414669778	0.0	0.6105275636666759	-0.27006565489617845	0.0	0.6748982625038878	-0.4237326631161062	0.0	0.940108160803457	-0.20477255760295976	0.0	0.9744955340212991	-0.36406651105228865	0.0	0.9652160745405602	-0.351985316094398	0.0
248	8.288194444444445	0.8281297677487692	-0.5038201220656425	0.0	0.8022920667635521	-0.5030703842410188	0.0	0.8926150387106467	-0.7530621346895874	0.0	0.7995305276201753	-0.9890374269704811	0.0	0.9141773682234203	-1.0354483379735864	0.0	0.8818405541203886	-1.0485044757643498	0.0	0.7639971995774192	-1.0216939707744874	0.0	0.8680718336263967	-0.5079948390995408	0.0	0.949535387676466	-0.7306455338049469	0.0	1.0314205534125749	-0.9239822459115205	0.0	1.134486327091467	-0.9549853995940117	0.0	1.1263209398756011	-0.9428980095056139	0.0	1.0222428116706732	-0.9554689963604776	0.0	0.8643892672961663	-0.14460920331075963	0.0	0.902130673896692	0.017936413804728654	0.0	0.9162327099605206	-0.07678048934627268	0.0	0.7706545686869403	-0.17727465486095145	0.0	0.6110285395298153	-0.26996090586452326	0.0	0.6707111875748455	-0.4250055222865828	0.0	0.9403214208459385	-0.20404164555675014	0.0	0.9743713750821391	-0.36276651322487213	0.0	0.9661810091887522	-0.3510466845523975	0.0
